# xmcd
#
# Track frame offsets:
#	150
#	12494
#	24683
#	39901
#	53589
#	67764
#	80554
#	93367
#	106342
#	119323
#	131661
#	146418
#	160243
#	172877
#	187706
#	199810
#	212397
#	223523
#	236006
#	247555
#	261027
#	273362
#	286793
#	298137
#	311236
#	324825
#
# Disc length: 4505 seconds
#
# Revision: 1
# Processed by: cddbd v1.5.2PL0 Copyright (c) Steve Scherf et al.
# Submitted via: audiograbber 1.83.01
#
DISCID=6111971a
DTITLE=Jesse Rogers - Wedding Bells
DYEAR=1900
DGENRE=Country
TTITLE0=Wedding Bells
TTITLE1=Hadacol Boogie
TTITLE2=Tennessee Polka
TTITLE3=Cry Baby Heart
TTITLE4=Country Boy
TTITLE5=I Won't Go Huntin', Jake
TTITLE6=Why Don't You Haul Off And Love Me
TTITLE7=Mind Your Own Business
TTITLE8=Slippin' Around With Jole Blon
TTITLE9=Finders Keepers, Losers Weepers
TTITLE10=All Alone
TTITLE11=I'm Writing To You Little Darling
TTITLE12=Just One Little Kiss
TTITLE13=Little Prairie Town
TTITLE14=The Little Girl Dressed In Blue
TTITLE15=When The Texas Moon Is Shining
TTITLE16=Hummin' To My Honey
TTITLE17=I Love The Name Of Texas
TTITLE18=Mary From Maryland
TTITLE19=Old Conesta Wagon
TTITLE20=Patent Leather Boots
TTITLE21=Roll Along, Prairie Moon
TTITLE22=Tomorrow, You'll Be Sorry You Broke My Heart Today
TTITLE23=When The Sun Goes Down
TTITLE24=Yellow Rose Of Texas
TTITLE25=My Lop-Eared Mule
EXTD=
EXTT0=
EXTT1=
EXTT2=
EXTT3=
EXTT4=
EXTT5=
EXTT6=
EXTT7=
EXTT8=
EXTT9=
EXTT10=
EXTT11=
EXTT12=
EXTT13=
EXTT14=
EXTT15=
EXTT16=
EXTT17=
EXTT18=
EXTT19=
EXTT20=
EXTT21=
EXTT22=
EXTT23=
EXTT24=
EXTT25=
PLAYORDER=
